<?xml version="1.0" encoding="utf-8"?>
<!-- Generator: Adobe Illustrator 19.2.1, SVG Export Plug-In . SVG Version: 6.00 Build 0)  -->
<svg version="1.1" id="Layer_1" xmlns="http://www.w3.org/2000/svg" xmlns:xlink="http://www.w3.org/1999/xlink" x="0px" y="0px"
	 viewBox="0 0 40.5 36.4" enable-background="new 0 0 40.5 36.4" xml:space="preserve">
<g>
	<path d="M39.7,6.9H16c-0.8,0-1.2,0.6-1,1.3l3.7,10.9c0.2,0.6,0.8,1.1,1.5,1.1h15.5c0.6,0,1.3-0.5,1.5-1.1l3.3-11.2
		C40.6,7.3,40.3,6.9,39.7,6.9L39.7,6.9z M39.7,6.9"/>
	<path d="M21.7,32.8c0,1.9-1.6,3.5-3.5,3.5c-2,0-3.5-1.6-3.5-3.5c0-1.9,1.6-3.5,3.5-3.5C20.1,29.3,21.7,30.9,21.7,32.8L21.7,32.8z
		 M21.7,32.8"/>
	<path d="M36.7,32.8c0,2-1.6,3.5-3.5,3.5c-1.9,0-3.5-1.6-3.5-3.5c0-1.9,1.6-3.5,3.5-3.5C35.1,29.3,36.7,30.9,36.7,32.8L36.7,32.8z
		 M36.7,32.8"/>
	<path d="M37.4,23.8H16.7L8.4,0H2C0.9,0,0,0.9,0,2c0,1.1,0.9,2,2,2h3.6l8.3,23.8h23.5c1.1,0,2-0.9,2-2
		C39.4,24.7,38.5,23.8,37.4,23.8L37.4,23.8z M37.4,23.8"/>
</g>
</svg>
